<svg xmlns="http://www.w3.org/2000/svg" xmlns:xlink="http://www.w3.org/1999/xlink" width="339" height="112" viewBox="0 0 339 112">
  <defs>
    <linearGradient id="linear-gradient" x1="0.5" x2="0.5" y2="1" gradientUnits="objectBoundingBox">
      <stop offset="0" stop-color="blue"/>
      <stop offset="1" stop-color="#8000ff"/>
    </linearGradient>
    <clipPath id="clip-path">
      <rect id="Rectangle_1" data-name="Rectangle 1" width="339" height="112"/>
    </clipPath>
    <clipPath id="clip-path-2">
      <rect id="Rectangle_182" data-name="Rectangle 182" width="339" height="112" transform="translate(0 0)"/>
    </clipPath>
    <clipPath id="clip-path-3">
      <path id="Path_8" data-name="Path 8" d="M61,56h79.914V78.887H61Zm0,0" transform="translate(-61 -56)" fill="url(#linear-gradient)"/>
    </clipPath>
    <clipPath id="clip-path-4">
      <path id="Path_10" data-name="Path 10" d="M98,55h20.948V75.4H98Zm0,0" transform="translate(-98 -55)" fill="url(#linear-gradient)"/>
    </clipPath>
  </defs>
  <g id="boosty-gradient-logo" clip-path="url(#clip-path)">
    <g id="boosty-logo" clip-path="url(#clip-path-2)">
      <path id="Path_241" data-name="Path 241" d="M3.588,6.911V-3.282h8.085V-44.4H3.588V-54.6H35.223a23.578,23.578,0,0,1,9.8,1.887,15.121,15.121,0,0,1,6.508,5.36,14.554,14.554,0,0,1,2.321,8.3v.879a13.435,13.435,0,0,1-1.581,6.9,12.544,12.544,0,0,1-3.735,4.13,16.242,16.242,0,0,1-4.087,2.071v1.577a15.806,15.806,0,0,1,4.215,1.982,12.245,12.245,0,0,1,3.911,4.168A13.767,13.767,0,0,1,54.2-10.225v.879A15.678,15.678,0,0,1,51.833-.6a15.269,15.269,0,0,1-6.545,5.581,22.887,22.887,0,0,1-9.712,1.933ZM23.278-3.633h10.9A9.545,9.545,0,0,0,40.281-5.48a6.333,6.333,0,0,0,2.328-5.273v-.879A6.387,6.387,0,0,0,40.324-16.9a9.506,9.506,0,0,0-6.152-1.846H23.278Zm0-25.659H34a9.256,9.256,0,0,0,5.931-1.846,6.143,6.143,0,0,0,2.328-5.1v-.879a6.163,6.163,0,0,0-2.285-5.141A9.37,9.37,0,0,0,34-44.059H23.278ZM79.511,8.142A25.417,25.417,0,0,1,67.826,5.506a19.769,19.769,0,0,1-8.172-7.645,23.084,23.084,0,0,1-2.988-12.038v-1.407a23.084,23.084,0,0,1,2.988-12.038,19.769,19.769,0,0,1,8.172-7.645A25.417,25.417,0,0,1,79.511-37.9,25.417,25.417,0,0,1,91.2-35.268a19.769,19.769,0,0,1,8.172,7.645,23.084,23.084,0,0,1,2.988,12.038v1.407A23.084,23.084,0,0,1,99.368-2.139,19.77,19.77,0,0,1,91.2,5.506,25.417,25.417,0,0,1,79.511,8.142Zm0-9.842A11.515,11.515,0,0,0,87.942-5a12.685,12.685,0,0,0,3.34-9.447v-.879a12.784,12.784,0,0,0-3.3-9.447,11.478,11.478,0,0,0-8.48-3.3,11.515,11.515,0,0,0-8.431,3.3,12.685,12.685,0,0,0-3.34,9.447v.879A12.685,12.685,0,0,0,71.076-5a11.515,11.515,0,0,0,8.435,3.3Zm48.507,9.842a25.417,25.417,0,0,1-11.685-2.636,19.769,19.769,0,0,1-8.172-7.645,23.084,23.084,0,0,1-2.988-12.038v-1.407a23.084,23.084,0,0,1,2.988-12.038,19.77,19.77,0,0,1,8.172-7.645A25.417,25.417,0,0,1,128.018-37.9,25.417,25.417,0,0,1,139.7-35.268a19.769,19.769,0,0,1,8.172,7.645,23.084,23.084,0,0,1,2.988,12.038v1.407a23.084,23.084,0,0,1-2.988,12.038A19.769,19.769,0,0,1,139.7,5.506a25.417,25.417,0,0,1-11.685,2.636Zm0-9.842A9.261,9.261,0,0,0,136.449-5c2.943-3.186,3.34-5.345,3.34-9.447v-.879a12.784,12.784,0,0,0-3.3-9.447,11.478,11.478,0,0,0-8.48-3.3,11.515,11.515,0,0,0-8.431,3.3,12.685,12.685,0,0,0-3.34,9.447v.879A12.685,12.685,0,0,0,119.583-5a11.515,11.515,0,0,0,8.431,3.3Zm45.87,9.842a24.4,24.4,0,0,1-13.97-3.7A15.174,15.174,0,0,1,153.327-6.1L163.52-8.736A10.83,10.83,0,0,0,165.591-3.9a7.974,7.974,0,0,0,3.6,2.5,14.256,14.256,0,0,0,4.7.74,9.655,9.655,0,0,0,5.712-1.362,4.072,4.072,0,0,0,1.846-3.38A3.479,3.479,0,0,0,179.7-8.52a16.794,16.794,0,0,0-5.621-1.8l-2.461-.444a44.333,44.333,0,0,1-8.348-2.417,15.22,15.22,0,0,1-6.064-4.261,10.568,10.568,0,0,1-2.285-7.03,11.6,11.6,0,0,1,4.745-9.973,20.647,20.647,0,0,1,12.478-3.471,21.261,21.261,0,0,1,12.129,3.254,14.983,14.983,0,0,1,6.328,8.524l-10.281,3.164a7.086,7.086,0,0,0-2.856-4.745,9.521,9.521,0,0,0-5.316-1.407,8.809,8.809,0,0,0-4.834,1.1A3.443,3.443,0,0,0,165.64-25a3.355,3.355,0,0,0,1.757,3.119,14.779,14.779,0,0,0,4.745,1.538l2.461.444a54.081,54.081,0,0,1,8.919,2.328,14.9,14.9,0,0,1,6.328,4.13,10.672,10.672,0,0,1,2.328,7.248A12.469,12.469,0,0,1,187.212,4.4q-4.977,3.744-13.325,3.744Zm38.489-1.231a9.448,9.448,0,0,1-6.984-2.68,9.679,9.679,0,0,1-2.68-7.162v-24.6h-10.9V-36.67h10.9V-50.2h11.072V-36.67h11.951v9.139H213.784V-4.859q0,2.636,2.461,2.636h8.431V6.916Zm22.855,17.575V14.82h23.726q2.461,0,2.461-2.636V1.2h-1.577a10.829,10.829,0,0,1-2.2,2.988A11.288,11.288,0,0,1,253.6,6.65a18.564,18.564,0,0,1-6.508.967,16.8,16.8,0,0,1-8.919-2.328,15.809,15.809,0,0,1-5.931-6.459,20.582,20.582,0,0,1-2.109-9.49V-36.673H241.2v25.131a10.138,10.138,0,0,0,2.417,7.382,9.238,9.238,0,0,0,6.9,2.461,9.712,9.712,0,0,0,7.909-3.38,14.347,14.347,0,0,0,2.81-9.447V-36.673h11.072V14.651a9.77,9.77,0,0,1-2.636,7.162,9.414,9.414,0,0,1-7.03,2.68Z" transform="translate(30.481 64.941)"/>
      <g id="boosty" transform="translate(96.661 79.39)">
        <g id="Group_19" data-name="Group 19" transform="translate(0 1.699)" clip-path="url(#clip-path-3)">
          <path id="Path_7" data-name="Path 7" d="M102.038,78.743c-27.171,0-39.925-17.7-40.449-18.458a2.581,2.581,0,0,1,.645-3.613,2.622,2.622,0,0,1,3.633.645c.466.658,11.822,16.233,36.171,16.233,17.959,0,32.951-13.084,33.095-13.217a2.619,2.619,0,0,1,3.686.213,2.584,2.584,0,0,1-.213,3.667C137.931,64.8,121.962,78.743,102.038,78.743Zm0,0" transform="translate(-60.919 -55.855)" fill="url(#linear-gradient)"/>
        </g>
        <g id="Group_20" data-name="Group 20" transform="translate(62.912)" clip-path="url(#clip-path-4)">
          <path id="Path_9" data-name="Path 9" d="M112.022,74.429a2.616,2.616,0,0,1-2.537-3.221l2.443-9.836L102.2,63.79a2.6,2.6,0,0,1-1.269-5.029l13.936-3.467a2.636,2.636,0,0,1,2.479.676,2.591,2.591,0,0,1,.691,2.464l-3.48,14.028a2.608,2.608,0,0,1-2.532,1.973Zm0,0" transform="translate(-97.271 -54.849)" fill="url(#linear-gradient)"/>
        </g>
      </g>
    </g>
  </g>
</svg>
