<svg xmlns="http://www.w3.org/2000/svg" xmlns:xlink="http://www.w3.org/1999/xlink" width="100" zoomAndPan="magnify" viewBox="0 0 75 74.999997" height="100" preserveAspectRatio="xMidYMid meet" version="1.0"><defs><clipPath id="add5fa4bc2"><path d="M 3.023438 3.023438 L 72 3.023438 L 72 72 L 3.023438 72 Z M 3.023438 3.023438 " clip-rule="nonzero"/></clipPath></defs><g clip-path="url(#add5fa4bc2)"><path fill="#38cf09" d="M 71.964844 37.496094 C 71.964844 56.535156 56.535156 71.964844 37.496094 71.964844 C 18.457031 71.964844 3.023438 56.535156 3.023438 37.496094 C 3.023438 18.457031 18.457031 3.023438 37.496094 3.023438 C 56.535156 3.023438 71.964844 18.457031 71.964844 37.496094 " fill-opacity="1" fill-rule="nonzero"/></g><path fill="#d4d3d2" d="M 71.960938 38.183594 L 71.960938 38.183594 M 71.960938 38.160156 L 71.960938 38.15625 L 71.960938 38.160156 M 71.960938 38.085938 C 71.960938 38.085938 71.960938 38.085938 71.960938 38.082031 L 71.960938 38.085938 M 71.960938 38.0625 L 71.960938 38.058594 L 71.960938 38.0625 M 71.960938 38.035156 L 71.960938 38.035156 M 71.964844 37.988281 L 71.964844 37.984375 L 71.964844 37.988281 M 71.964844 37.964844 L 71.964844 37.960938 L 71.964844 37.964844 M 71.964844 37.9375 L 71.964844 37.9375 M 71.964844 37.890625 L 71.964844 37.886719 C 71.964844 37.890625 71.964844 37.890625 71.964844 37.890625 M 71.964844 37.867188 C 71.964844 37.863281 71.964844 37.863281 71.964844 37.863281 C 71.964844 37.863281 71.964844 37.863281 71.964844 37.867188 M 71.964844 37.839844 C 71.964844 37.839844 71.964844 37.839844 71.964844 37.835938 C 71.964844 37.839844 71.964844 37.839844 71.964844 37.839844 M 71.964844 37.816406 C 71.964844 37.8125 71.964844 37.816406 71.964844 37.8125 L 71.964844 37.816406 M 71.964844 37.792969 C 71.964844 37.792969 71.964844 37.789062 71.964844 37.789062 C 71.964844 37.789062 71.964844 37.792969 71.964844 37.792969 M 71.964844 37.769531 C 71.964844 37.765625 71.964844 37.765625 71.964844 37.765625 C 71.964844 37.765625 71.964844 37.765625 71.964844 37.769531 M 71.964844 37.742188 C 71.964844 37.742188 71.964844 37.742188 71.964844 37.738281 C 71.964844 37.742188 71.964844 37.742188 71.964844 37.742188 M 71.964844 37.71875 C 71.964844 37.714844 71.964844 37.71875 71.964844 37.714844 L 71.964844 37.71875 M 71.964844 37.695312 C 71.964844 37.691406 71.964844 37.691406 71.964844 37.691406 C 71.964844 37.691406 71.964844 37.691406 71.964844 37.695312 M 71.964844 37.671875 C 71.964844 37.667969 71.964844 37.667969 71.964844 37.667969 C 71.964844 37.667969 71.964844 37.667969 71.964844 37.671875 M 71.964844 37.644531 C 71.964844 37.644531 71.964844 37.644531 71.964844 37.640625 C 71.964844 37.644531 71.964844 37.644531 71.964844 37.644531 M 71.964844 37.621094 L 71.964844 37.617188 C 71.964844 37.617188 71.964844 37.617188 71.964844 37.621094 M 71.964844 37.59375 L 71.964844 37.59375 M 71.964844 37.570312 L 71.964844 37.570312 M 71.964844 37.546875 C 71.964844 37.546875 71.964844 37.542969 71.964844 37.542969 C 71.964844 37.546875 71.964844 37.546875 71.964844 37.546875 M 71.964844 37.519531 L 71.964844 37.519531 " fill-opacity="1" fill-rule="nonzero"/><path fill="#24bd1e" d="M 44.097656 71.332031 L 29.8125 57.046875 L 61.613281 25.242188 L 71.910156 35.539062 C 71.945312 36.1875 71.964844 36.839844 71.964844 37.496094 C 71.964844 37.503906 71.964844 37.511719 71.964844 37.519531 C 71.964844 37.527344 71.964844 37.535156 71.964844 37.542969 C 71.964844 37.542969 71.964844 37.546875 71.964844 37.546875 C 71.964844 37.554688 71.964844 37.5625 71.964844 37.570312 C 71.964844 37.578125 71.964844 37.585938 71.964844 37.59375 C 71.964844 37.601562 71.964844 37.609375 71.964844 37.617188 L 71.964844 37.621094 C 71.964844 37.625 71.964844 37.632812 71.964844 37.640625 C 71.964844 37.644531 71.964844 37.644531 71.964844 37.644531 C 71.964844 37.652344 71.964844 37.660156 71.964844 37.667969 C 71.964844 37.667969 71.964844 37.667969 71.964844 37.671875 C 71.964844 37.675781 71.964844 37.683594 71.964844 37.691406 C 71.964844 37.691406 71.964844 37.691406 71.964844 37.695312 C 71.964844 37.699219 71.964844 37.707031 71.964844 37.714844 C 71.964844 37.71875 71.964844 37.714844 71.964844 37.71875 C 71.964844 37.722656 71.964844 37.730469 71.964844 37.738281 C 71.964844 37.742188 71.964844 37.742188 71.964844 37.742188 C 71.964844 37.75 71.964844 37.757812 71.964844 37.765625 C 71.964844 37.765625 71.964844 37.765625 71.964844 37.769531 C 71.964844 37.773438 71.964844 37.78125 71.964844 37.789062 C 71.964844 37.789062 71.964844 37.792969 71.964844 37.792969 C 71.964844 37.800781 71.964844 37.808594 71.964844 37.8125 C 71.964844 37.816406 71.964844 37.8125 71.964844 37.816406 C 71.964844 37.824219 71.964844 37.832031 71.964844 37.835938 C 71.964844 37.839844 71.964844 37.839844 71.964844 37.839844 C 71.964844 37.847656 71.964844 37.855469 71.964844 37.863281 C 71.964844 37.863281 71.964844 37.863281 71.964844 37.867188 C 71.964844 37.875 71.964844 37.878906 71.964844 37.886719 L 71.964844 37.890625 C 71.964844 37.898438 71.964844 37.90625 71.964844 37.914062 C 71.964844 37.921875 71.964844 37.929688 71.964844 37.9375 C 71.964844 37.945312 71.964844 37.953125 71.964844 37.960938 L 71.964844 37.964844 C 71.964844 37.972656 71.964844 37.976562 71.964844 37.984375 L 71.964844 37.988281 C 71.964844 38.003906 71.960938 38.019531 71.960938 38.035156 C 71.960938 38.042969 71.960938 38.050781 71.960938 38.058594 L 71.960938 38.0625 C 71.960938 38.070312 71.960938 38.074219 71.960938 38.082031 C 71.960938 38.085938 71.960938 38.085938 71.960938 38.085938 C 71.960938 38.109375 71.960938 38.132812 71.960938 38.15625 L 71.960938 38.160156 C 71.960938 38.167969 71.960938 38.171875 71.960938 38.183594 C 71.960938 38.207031 71.957031 38.230469 71.957031 38.257812 C 71.957031 38.265625 71.957031 38.273438 71.957031 38.28125 C 71.589844 54.707031 59.730469 68.300781 44.097656 71.332031 " fill-opacity="1" fill-rule="nonzero"/><path fill="#feffff" d="M 13.378906 40.847656 L 20.972656 33.253906 L 29.992188 42.273438 L 54.316406 17.945312 L 61.613281 25.242188 L 29.8125 57.046875 L 13.378906 40.847656 " fill-opacity="1" fill-rule="nonzero"/></svg>