<svg xmlns="http://www.w3.org/2000/svg" xmlns:xlink="http://www.w3.org/1999/xlink" width="1200" height="630" viewBox="0 0 1200 630">
  <defs>
    <linearGradient id="linear-gradient" x1="0.011" y1="0.971" x2="0.713" y2="0.23" gradientUnits="objectBoundingBox">
      <stop offset="0" stop-color="blue"/>
      <stop offset="1" stop-color="#8000ff"/>
    </linearGradient>
    <clipPath id="clip-path">
      <rect id="Rectangle_1" data-name="Rectangle 1" width="339" height="112"/>
    </clipPath>
    <clipPath id="clip-path-2">
      <rect id="Rectangle_182" data-name="Rectangle 182" width="339" height="112" transform="translate(0 0)"/>
    </clipPath>
    <clipPath id="clip-path-3">
      <path id="Path_8" data-name="Path 8" d="M61,56h79.914V78.887H61Zm0,0" transform="translate(-61 -56)" fill="#fff"/>
    </clipPath>
    <clipPath id="clip-path-4">
      <path id="Path_10" data-name="Path 10" d="M98,55h20.948V75.4H98Zm0,0" transform="translate(-98 -55)" fill="#fff"/>
    </clipPath>
    <linearGradient id="linear-gradient-2" x1="0.5" y1="0" x2="0.5" y2="1" xlink:href="#linear-gradient"/>
    <clipPath id="clip-dashboard-asset">
      <rect width="1200" height="630"/>
    </clipPath>
  </defs>
  <g id="dashboard-asset" clip-path="url(#clip-dashboard-asset)">
    <rect width="1200" height="630" fill="url(#linear-gradient)"/>
    <g id="boosty-gradient-logo" transform="translate(38 53)" clip-path="url(#clip-path)">
      <g id="boosty-logo" clip-path="url(#clip-path-2)">
        <path id="Path_241" data-name="Path 241" d="M3.588,6.911V-3.282h8.085V-44.4H3.588V-54.6H35.223a23.578,23.578,0,0,1,9.8,1.887,15.121,15.121,0,0,1,6.508,5.36,14.554,14.554,0,0,1,2.321,8.3v.879a13.435,13.435,0,0,1-1.581,6.9,12.544,12.544,0,0,1-3.735,4.13,16.242,16.242,0,0,1-4.087,2.071v1.577a15.806,15.806,0,0,1,4.215,1.982,12.245,12.245,0,0,1,3.911,4.168A13.767,13.767,0,0,1,54.2-10.225v.879A15.678,15.678,0,0,1,51.833-.6a15.269,15.269,0,0,1-6.545,5.581,22.887,22.887,0,0,1-9.712,1.933ZM23.278-3.633h10.9A9.545,9.545,0,0,0,40.281-5.48a6.333,6.333,0,0,0,2.328-5.273v-.879A6.387,6.387,0,0,0,40.324-16.9a9.506,9.506,0,0,0-6.152-1.846H23.278Zm0-25.659H34a9.256,9.256,0,0,0,5.931-1.846,6.143,6.143,0,0,0,2.328-5.1v-.879a6.163,6.163,0,0,0-2.285-5.141A9.37,9.37,0,0,0,34-44.059H23.278ZM79.511,8.142A25.417,25.417,0,0,1,67.826,5.506a19.769,19.769,0,0,1-8.172-7.645,23.084,23.084,0,0,1-2.988-12.038v-1.407a23.084,23.084,0,0,1,2.988-12.038,19.769,19.769,0,0,1,8.172-7.645A25.417,25.417,0,0,1,79.511-37.9,25.417,25.417,0,0,1,91.2-35.268a19.769,19.769,0,0,1,8.172,7.645,23.084,23.084,0,0,1,2.988,12.038v1.407A23.084,23.084,0,0,1,99.368-2.139,19.77,19.77,0,0,1,91.2,5.506,25.417,25.417,0,0,1,79.511,8.142Zm0-9.842A11.515,11.515,0,0,0,87.942-5a12.685,12.685,0,0,0,3.34-9.447v-.879a12.784,12.784,0,0,0-3.3-9.447,11.478,11.478,0,0,0-8.48-3.3,11.515,11.515,0,0,0-8.431,3.3,12.685,12.685,0,0,0-3.34,9.447v.879A12.685,12.685,0,0,0,71.076-5a11.515,11.515,0,0,0,8.435,3.3Zm48.507,9.842a25.417,25.417,0,0,1-11.685-2.636,19.769,19.769,0,0,1-8.172-7.645,23.084,23.084,0,0,1-2.988-12.038v-1.407a23.084,23.084,0,0,1,2.988-12.038,19.77,19.77,0,0,1,8.172-7.645A25.417,25.417,0,0,1,128.018-37.9,25.417,25.417,0,0,1,139.7-35.268a19.769,19.769,0,0,1,8.172,7.645,23.084,23.084,0,0,1,2.988,12.038v1.407a23.084,23.084,0,0,1-2.988,12.038A19.769,19.769,0,0,1,139.7,5.506a25.417,25.417,0,0,1-11.685,2.636Zm0-9.842A9.261,9.261,0,0,0,136.449-5c2.943-3.186,3.34-5.345,3.34-9.447v-.879a12.784,12.784,0,0,0-3.3-9.447,11.478,11.478,0,0,0-8.48-3.3,11.515,11.515,0,0,0-8.431,3.3,12.685,12.685,0,0,0-3.34,9.447v.879A12.685,12.685,0,0,0,119.583-5a11.515,11.515,0,0,0,8.431,3.3Zm45.87,9.842a24.4,24.4,0,0,1-13.97-3.7A15.174,15.174,0,0,1,153.327-6.1L163.52-8.736A10.83,10.83,0,0,0,165.591-3.9a7.974,7.974,0,0,0,3.6,2.5,14.256,14.256,0,0,0,4.7.74,9.655,9.655,0,0,0,5.712-1.362,4.072,4.072,0,0,0,1.846-3.38A3.479,3.479,0,0,0,179.7-8.52a16.794,16.794,0,0,0-5.621-1.8l-2.461-.444a44.333,44.333,0,0,1-8.348-2.417,15.22,15.22,0,0,1-6.064-4.261,10.568,10.568,0,0,1-2.285-7.03,11.6,11.6,0,0,1,4.745-9.973,20.647,20.647,0,0,1,12.478-3.471,21.261,21.261,0,0,1,12.129,3.254,14.983,14.983,0,0,1,6.328,8.524l-10.281,3.164a7.086,7.086,0,0,0-2.856-4.745,9.521,9.521,0,0,0-5.316-1.407,8.809,8.809,0,0,0-4.834,1.1A3.443,3.443,0,0,0,165.64-25a3.355,3.355,0,0,0,1.757,3.119,14.779,14.779,0,0,0,4.745,1.538l2.461.444a54.081,54.081,0,0,1,8.919,2.328,14.9,14.9,0,0,1,6.328,4.13,10.672,10.672,0,0,1,2.328,7.248A12.469,12.469,0,0,1,187.212,4.4q-4.977,3.744-13.325,3.744Zm38.489-1.231a9.448,9.448,0,0,1-6.984-2.68,9.679,9.679,0,0,1-2.68-7.162v-24.6h-10.9V-36.67h10.9V-50.2h11.072V-36.67h11.951v9.139H213.784V-4.859q0,2.636,2.461,2.636h8.431V6.916Zm22.855,17.575V14.82h23.726q2.461,0,2.461-2.636V1.2h-1.577a10.829,10.829,0,0,1-2.2,2.988A11.288,11.288,0,0,1,253.6,6.65a18.564,18.564,0,0,1-6.508.967,16.8,16.8,0,0,1-8.919-2.328,15.809,15.809,0,0,1-5.931-6.459,20.582,20.582,0,0,1-2.109-9.49V-36.673H241.2v25.131a10.138,10.138,0,0,0,2.417,7.382,9.238,9.238,0,0,0,6.9,2.461,9.712,9.712,0,0,0,7.909-3.38,14.347,14.347,0,0,0,2.81-9.447V-36.673h11.072V14.651a9.77,9.77,0,0,1-2.636,7.162,9.414,9.414,0,0,1-7.03,2.68Z" transform="translate(30.481 64.941)" fill="#fff"/>
        <g id="boosty" transform="translate(96.661 79.39)">
          <g id="Group_19" data-name="Group 19" transform="translate(0 1.699)" clip-path="url(#clip-path-3)">
            <path id="Path_7" data-name="Path 7" d="M102.038,78.743c-27.171,0-39.925-17.7-40.449-18.458a2.581,2.581,0,0,1,.645-3.613,2.622,2.622,0,0,1,3.633.645c.466.658,11.822,16.233,36.171,16.233,17.959,0,32.951-13.084,33.095-13.217a2.619,2.619,0,0,1,3.686.213,2.584,2.584,0,0,1-.213,3.667C137.931,64.8,121.962,78.743,102.038,78.743Zm0,0" transform="translate(-60.919 -55.855)" fill="#fff"/>
          </g>
          <g id="Group_20" data-name="Group 20" transform="translate(62.912)" clip-path="url(#clip-path-4)">
            <path id="Path_9" data-name="Path 9" d="M112.022,74.429a2.616,2.616,0,0,1-2.537-3.221l2.443-9.836L102.2,63.79a2.6,2.6,0,0,1-1.269-5.029l13.936-3.467a2.636,2.636,0,0,1,2.479.676,2.591,2.591,0,0,1,.691,2.464l-3.48,14.028a2.608,2.608,0,0,1-2.532,1.973Zm0,0" transform="translate(-97.271 -54.849)" fill="#fff"/>
          </g>
        </g>
      </g>
    </g>
    <g id="Group_4" data-name="Group 4">
      <rect id="Rectangle_7" data-name="Rectangle 7" width="438" height="82" rx="15" transform="translate(54 308)" fill="#fff"/>
      <path id="Path_8-2" data-name="Path 8" d="M31.754-35.859a6.6,6.6,0,0,0-2.837-4.926,11,11,0,0,0-6.484-1.763,12.336,12.336,0,0,0-4.805.845,7.114,7.114,0,0,0-3.067,2.294A5.578,5.578,0,0,0,13.474-36.1a4.937,4.937,0,0,0,.712,2.68,6.153,6.153,0,0,0,1.944,1.92,13.385,13.385,0,0,0,2.729,1.316,29.35,29.35,0,0,0,3.018.893l4.636,1.159a32.306,32.306,0,0,1,5.4,1.763,19.282,19.282,0,0,1,4.661,2.8,12.5,12.5,0,0,1,3.272,4.081,12.277,12.277,0,0,1,1.207,5.6A13.349,13.349,0,0,1,38.83-6.242,14.578,14.578,0,0,1,32.418-1.1,25.028,25.028,0,0,1,22.288.749,25.647,25.647,0,0,1,12.279-1.038,14.837,14.837,0,0,1,5.663-6.254a15.4,15.4,0,0,1-2.572-8.355H11.9a7.492,7.492,0,0,0,1.594,4.3,8.427,8.427,0,0,0,3.658,2.56,14.343,14.343,0,0,0,5.059.845,13.787,13.787,0,0,0,5.131-.881,8.17,8.17,0,0,0,3.465-2.463,5.9,5.9,0,0,0,1.28-3.707,4.774,4.774,0,0,0-1.135-3.2,8.521,8.521,0,0,0-3.1-2.125,31.464,31.464,0,0,0-4.648-1.533L17.58-22.264a22.472,22.472,0,0,1-9.647-4.769,10.919,10.919,0,0,1-3.538-8.512A12.7,12.7,0,0,1,6.773-43.2a15.636,15.636,0,0,1,6.484-5.107,22.678,22.678,0,0,1,9.3-1.823,21.942,21.942,0,0,1,9.237,1.823,15.178,15.178,0,0,1,6.242,5.047,12.941,12.941,0,0,1,2.342,7.4Zm35.4-1.232v6.761H45.832v-6.761ZM51.1-45.977h8.741v34.821a5.409,5.409,0,0,0,.543,2.692A2.8,2.8,0,0,0,61.818-7.2a5.556,5.556,0,0,0,1.98.338,8.755,8.755,0,0,0,1.509-.121Q66-7.1,66.358-7.2L67.831-.362a19.706,19.706,0,0,1-1.992.531,16.624,16.624,0,0,1-3.151.338,14.126,14.126,0,0,1-5.916-1,9.056,9.056,0,0,1-4.165-3.417,10.156,10.156,0,0,1-1.509-5.8ZM85.145.749A15.264,15.264,0,0,1,78.806-.519a10.193,10.193,0,0,1-4.443-3.755,10.955,10.955,0,0,1-1.63-6.134A10.456,10.456,0,0,1,73.892-15.6a8.97,8.97,0,0,1,3.163-3.284,16.19,16.19,0,0,1,4.528-1.871,37.493,37.493,0,0,1,5.228-.93q3.26-.338,5.288-.616a7.669,7.669,0,0,0,2.958-.869,2.032,2.032,0,0,0,.93-1.847v-.145a5.472,5.472,0,0,0-1.618-4.226,6.62,6.62,0,0,0-4.661-1.5,8.3,8.3,0,0,0-5.083,1.4A6.927,6.927,0,0,0,82.1-26.176L73.94-27.335A13.123,13.123,0,0,1,77.128-33a14.05,14.05,0,0,1,5.433-3.429,20.983,20.983,0,0,1,7.1-1.147A23.127,23.127,0,0,1,95-36.946a15.169,15.169,0,0,1,4.854,2.065,10.629,10.629,0,0,1,3.538,3.9,12.767,12.767,0,0,1,1.34,6.158V0h-8.4V-5.1h-.29A10.609,10.609,0,0,1,93.8-2.21,10.7,10.7,0,0,1,90.2-.06,14.407,14.407,0,0,1,85.145.749Zm2.27-6.423a9.415,9.415,0,0,0,4.564-1.05,7.681,7.681,0,0,0,2.982-2.789,7.2,7.2,0,0,0,1.05-3.791v-4.371a4.1,4.1,0,0,1-1.388.628,20.527,20.527,0,0,1-2.185.507q-1.207.217-2.391.386t-2.053.29a15.264,15.264,0,0,0-3.5.869,5.868,5.868,0,0,0-2.439,1.678,4.18,4.18,0,0,0-.893,2.765,4.16,4.16,0,0,0,1.763,3.646A7.665,7.665,0,0,0,87.415-5.675ZM113.543,0V-37.091h8.476v6.182h.386a9.287,9.287,0,0,1,3.489-4.962,9.562,9.562,0,0,1,5.663-1.751q.724,0,1.63.06a11.948,11.948,0,0,1,1.509.181v8.041a9.621,9.621,0,0,0-1.751-.35,17.72,17.72,0,0,0-2.306-.157,8.857,8.857,0,0,0-4.286,1.026,7.664,7.664,0,0,0-2.982,2.837,7.961,7.961,0,0,0-1.087,4.178V0Zm47.5-37.091v6.761H139.719v-6.761Zm-16.058-8.886h8.741v34.821a5.409,5.409,0,0,0,.543,2.692A2.8,2.8,0,0,0,155.7-7.2a5.556,5.556,0,0,0,1.98.338,8.755,8.755,0,0,0,1.509-.121q.688-.121,1.05-.217l1.473,6.834a19.706,19.706,0,0,1-1.992.531,16.624,16.624,0,0,1-3.151.338,14.126,14.126,0,0,1-5.916-1,9.056,9.056,0,0,1-4.165-3.417,10.156,10.156,0,0,1-1.509-5.8ZM190.67,13.909a18.245,18.245,0,0,1-3.3-.278,12.733,12.733,0,0,1-2.4-.64L187,6.182a11.662,11.662,0,0,0,3.4.531,4.263,4.263,0,0,0,2.644-.93,6.829,6.829,0,0,0,1.944-3.006l.749-2-13.45-37.864h9.273L200.112-9.08h.386l8.572-28.011h9.3L203.517,4.491a16.821,16.821,0,0,1-2.753,5.059,11.379,11.379,0,0,1-4.19,3.236A14.2,14.2,0,0,1,190.67,13.909ZM239.3.724a17.959,17.959,0,0,1-9.418-2.391,16.154,16.154,0,0,1-6.17-6.689A21.887,21.887,0,0,1,221.531-18.4a22.038,22.038,0,0,1,2.185-10.07,16.121,16.121,0,0,1,6.17-6.713,17.959,17.959,0,0,1,9.418-2.391,17.96,17.96,0,0,1,9.418,2.391,16.121,16.121,0,0,1,6.17,6.713,22.038,22.038,0,0,1,2.185,10.07,21.887,21.887,0,0,1-2.185,10.045,16.154,16.154,0,0,1-6.17,6.689A17.96,17.96,0,0,1,239.3.724Zm.048-7a7.494,7.494,0,0,0,4.926-1.63,9.754,9.754,0,0,0,2.958-4.383,18.225,18.225,0,0,0,.978-6.134,18.408,18.408,0,0,0-.978-6.17A9.833,9.833,0,0,0,244.278-29a7.459,7.459,0,0,0-4.926-1.642A7.616,7.616,0,0,0,234.342-29a9.789,9.789,0,0,0-2.97,4.407,18.408,18.408,0,0,0-.978,6.17,18.225,18.225,0,0,0,.978,6.134,9.711,9.711,0,0,0,2.97,4.383A7.653,7.653,0,0,0,239.352-6.278ZM288.107-15.6V-37.091h8.741V0h-8.476V-6.592h-.386a11.178,11.178,0,0,1-4.117,5.1A12.071,12.071,0,0,1,276.83.483a12.518,12.518,0,0,1-6.435-1.63A11.128,11.128,0,0,1,266.035-5.9a16.728,16.728,0,0,1-1.57-7.57V-37.091h8.741v22.264a7.9,7.9,0,0,0,1.932,5.6,6.6,6.6,0,0,0,5.071,2.077,8.017,8.017,0,0,0,3.743-.942,7.671,7.671,0,0,0,2.982-2.813A8.7,8.7,0,0,0,288.107-15.6ZM305.831,0V-37.091h8.476v6.182h.386a9.287,9.287,0,0,1,3.489-4.962,9.562,9.562,0,0,1,5.663-1.751q.724,0,1.63.06a11.948,11.948,0,0,1,1.509.181v8.041a9.622,9.622,0,0,0-1.751-.35,17.72,17.72,0,0,0-2.306-.157,8.857,8.857,0,0,0-4.286,1.026,7.663,7.663,0,0,0-2.982,2.837,7.961,7.961,0,0,0-1.087,4.178V0Zm57.616.652a14.034,14.034,0,0,1-7.824-2.246,15.262,15.262,0,0,1-5.457-6.52,24.33,24.33,0,0,1-2-10.384,24.064,24.064,0,0,1,2.04-10.444,15.031,15.031,0,0,1,5.518-6.447,14.269,14.269,0,0,1,7.751-2.185,11.524,11.524,0,0,1,5.361,1.1,10.333,10.333,0,0,1,3.332,2.632,16.436,16.436,0,0,1,1.908,2.886h.362v-18.5H383.2V0h-8.6V-5.844h-.531a14.643,14.643,0,0,1-1.956,2.862,10.666,10.666,0,0,1-3.381,2.572A11.671,11.671,0,0,1,363.447.652Zm2.439-7.172a7.517,7.517,0,0,0,4.733-1.509,9.279,9.279,0,0,0,2.97-4.214,17.909,17.909,0,0,0,1.014-6.3,17.7,17.7,0,0,0-1-6.254,9.016,9.016,0,0,0-2.946-4.129,7.667,7.667,0,0,0-4.769-1.473,7.705,7.705,0,0,0-4.878,1.521,9.21,9.21,0,0,0-2.946,4.2,17.634,17.634,0,0,0-.99,6.134,17.822,17.822,0,0,0,1,6.194,9.48,9.48,0,0,0,2.97,4.274A7.559,7.559,0,0,0,365.886-6.52ZM392.545,0V-37.091h8.476v6.182h.386a9.287,9.287,0,0,1,3.489-4.962,9.562,9.562,0,0,1,5.663-1.751q.724,0,1.63.06a11.948,11.948,0,0,1,1.509.181v8.041a9.622,9.622,0,0,0-1.751-.35,17.72,17.72,0,0,0-2.306-.157,8.857,8.857,0,0,0-4.286,1.026,7.663,7.663,0,0,0-2.982,2.837,7.961,7.961,0,0,0-1.087,4.178V0Zm41.848.724a18.955,18.955,0,0,1-9.623-2.33,15.586,15.586,0,0,1-6.218-6.616,22.084,22.084,0,0,1-2.173-10.106,22.057,22.057,0,0,1,2.185-10.058,16.453,16.453,0,0,1,6.121-6.761,17.266,17.266,0,0,1,9.249-2.427,19.011,19.011,0,0,1,6.484,1.1,14.894,14.894,0,0,1,5.409,3.393,15.949,15.949,0,0,1,3.707,5.832,23.565,23.565,0,0,1,1.352,8.415v2.68h-30.4v-5.892h22.023a9.475,9.475,0,0,0-1.087-4.479,7.949,7.949,0,0,0-2.958-3.1,8.413,8.413,0,0,0-4.407-1.135,8.575,8.575,0,0,0-4.709,1.292,9.008,9.008,0,0,0-3.151,3.381,9.715,9.715,0,0,0-1.147,4.576v5.143a12.012,12.012,0,0,0,1.183,5.542A8.348,8.348,0,0,0,429.54-7.3a9.821,9.821,0,0,0,4.974,1.219,10.361,10.361,0,0,0,3.453-.543,7.518,7.518,0,0,0,2.68-1.606,6.738,6.738,0,0,0,1.714-2.632l8.162.918A12.7,12.7,0,0,1,447.59-4.31a14.293,14.293,0,0,1-5.518,3.719A20.921,20.921,0,0,1,434.393.724Zm34.555.024A15.264,15.264,0,0,1,462.61-.519a10.193,10.193,0,0,1-4.443-3.755,10.955,10.955,0,0,1-1.63-6.134A10.456,10.456,0,0,1,457.7-15.6a8.97,8.97,0,0,1,3.163-3.284,16.19,16.19,0,0,1,4.528-1.871,37.493,37.493,0,0,1,5.228-.93q3.26-.338,5.288-.616a7.669,7.669,0,0,0,2.958-.869,2.032,2.032,0,0,0,.93-1.847v-.145a5.471,5.471,0,0,0-1.618-4.226,6.619,6.619,0,0,0-4.66-1.5,8.3,8.3,0,0,0-5.083,1.4,6.927,6.927,0,0,0-2.523,3.308l-8.162-1.159A13.123,13.123,0,0,1,460.932-33a14.05,14.05,0,0,1,5.433-3.429,20.983,20.983,0,0,1,7.1-1.147,23.127,23.127,0,0,1,5.337.628,15.168,15.168,0,0,1,4.854,2.065,10.629,10.629,0,0,1,3.538,3.9,12.767,12.767,0,0,1,1.34,6.158V0h-8.4V-5.1h-.29a10.609,10.609,0,0,1-2.234,2.886,10.7,10.7,0,0,1-3.6,2.149A14.408,14.408,0,0,1,468.949.749Zm2.27-6.423a9.415,9.415,0,0,0,4.564-1.05,7.681,7.681,0,0,0,2.982-2.789,7.2,7.2,0,0,0,1.05-3.791v-4.371a4.1,4.1,0,0,1-1.388.628,20.529,20.529,0,0,1-2.185.507q-1.207.217-2.391.386t-2.053.29a15.264,15.264,0,0,0-3.5.869,5.868,5.868,0,0,0-2.439,1.678,4.18,4.18,0,0,0-.893,2.765,4.16,4.16,0,0,0,1.763,3.646A7.665,7.665,0,0,0,471.219-5.675ZM497.347,0V-37.091H505.7v6.3h.435a9.9,9.9,0,0,1,3.839-4.987,11.212,11.212,0,0,1,6.4-1.8,10.793,10.793,0,0,1,6.363,1.823,9.681,9.681,0,0,1,3.658,4.962h.386a10.184,10.184,0,0,1,4.165-4.938,12.8,12.8,0,0,1,6.967-1.847,11.307,11.307,0,0,1,8.355,3.236q3.236,3.236,3.236,9.442V0H540.74V-23.544q0-3.453-1.835-5.059a6.581,6.581,0,0,0-4.492-1.606,6.31,6.31,0,0,0-4.938,1.968,7.334,7.334,0,0,0-1.775,5.107V0h-8.572V-23.906a6.176,6.176,0,0,0-1.727-4.588,6.115,6.115,0,0,0-4.5-1.714,6.4,6.4,0,0,0-3.429.954,6.846,6.846,0,0,0-2.463,2.68,8.443,8.443,0,0,0-.918,4.021V0ZM52.932,32.545h8.959v32.31a17.373,17.373,0,0,1-2.5,9.345,16.97,16.97,0,0,1-7.015,6.29,23.316,23.316,0,0,1-10.553,2.258,23.373,23.373,0,0,1-10.577-2.258,16.887,16.887,0,0,1-7-6.29,17.437,17.437,0,0,1-2.487-9.345V32.545h8.959V64.107a11,11,0,0,0,1.364,5.506,9.668,9.668,0,0,0,3.852,3.779,12.07,12.07,0,0,0,5.892,1.364,12.14,12.14,0,0,0,5.9-1.364,9.567,9.567,0,0,0,3.852-3.779,11.074,11.074,0,0,0,1.352-5.506Zm45.591,13.6a6.6,6.6,0,0,0-2.837-4.926A11,11,0,0,0,89.2,39.452,12.336,12.336,0,0,0,84.4,40.3a7.114,7.114,0,0,0-3.067,2.294A5.578,5.578,0,0,0,80.243,45.9a4.937,4.937,0,0,0,.712,2.68A6.153,6.153,0,0,0,82.9,50.5a13.385,13.385,0,0,0,2.729,1.316,29.351,29.351,0,0,0,3.018.893l4.636,1.159a32.306,32.306,0,0,1,5.4,1.763,19.282,19.282,0,0,1,4.661,2.8,12.5,12.5,0,0,1,3.272,4.081,12.277,12.277,0,0,1,1.207,5.6,13.349,13.349,0,0,1-2.222,7.643A14.578,14.578,0,0,1,99.187,80.9a25.028,25.028,0,0,1-10.13,1.847,25.647,25.647,0,0,1-10.009-1.787,14.837,14.837,0,0,1-6.616-5.216,15.4,15.4,0,0,1-2.572-8.355h8.814a7.492,7.492,0,0,0,1.594,4.3,8.427,8.427,0,0,0,3.658,2.56,14.343,14.343,0,0,0,5.059.845,13.787,13.787,0,0,0,5.131-.881,8.17,8.17,0,0,0,3.465-2.463,5.9,5.9,0,0,0,1.28-3.707,4.774,4.774,0,0,0-1.135-3.2,8.521,8.521,0,0,0-3.1-2.125,31.463,31.463,0,0,0-4.648-1.533l-5.626-1.449A22.472,22.472,0,0,1,74.7,54.967a10.919,10.919,0,0,1-3.538-8.512A12.7,12.7,0,0,1,73.542,38.8a15.636,15.636,0,0,1,6.484-5.107,22.678,22.678,0,0,1,9.3-1.823,21.942,21.942,0,0,1,9.237,1.823,15.178,15.178,0,0,1,6.242,5.047,12.941,12.941,0,0,1,2.342,7.4ZM132.668,82V32.545h8.741v18.5h.362a16.436,16.436,0,0,1,1.908-2.886,10.333,10.333,0,0,1,3.332-2.632,11.524,11.524,0,0,1,5.361-1.1,14.252,14.252,0,0,1,7.764,2.185,15.061,15.061,0,0,1,5.506,6.447,24.064,24.064,0,0,1,2.04,10.444,24.329,24.329,0,0,1-2,10.384,15.262,15.262,0,0,1-5.457,6.52,14.034,14.034,0,0,1-7.824,2.246,11.671,11.671,0,0,1-5.288-1.062,10.521,10.521,0,0,1-3.369-2.572,15.909,15.909,0,0,1-1.968-2.862h-.507V82Zm8.572-18.545a17.718,17.718,0,0,0,1.026,6.3,9.4,9.4,0,0,0,2.97,4.214,7.466,7.466,0,0,0,4.721,1.509,7.546,7.546,0,0,0,4.854-1.558,9.522,9.522,0,0,0,2.958-4.274,17.822,17.822,0,0,0,1-6.194,17.634,17.634,0,0,0-.99-6.134,9.211,9.211,0,0,0-2.946-4.2,8.5,8.5,0,0,0-9.635-.048,8.979,8.979,0,0,0-2.958,4.129A17.7,17.7,0,0,0,141.24,63.455ZM198.784,66.4V44.909h8.741V82H199.05V75.408h-.386a11.178,11.178,0,0,1-4.117,5.1,12.071,12.071,0,0,1-7.039,1.98,12.518,12.518,0,0,1-6.435-1.63,11.128,11.128,0,0,1-4.359-4.757,16.728,16.728,0,0,1-1.57-7.57V44.909h8.741V67.173a7.9,7.9,0,0,0,1.932,5.6,6.6,6.6,0,0,0,5.071,2.077,8.016,8.016,0,0,0,3.743-.942,7.671,7.671,0,0,0,2.982-2.813A8.7,8.7,0,0,0,198.784,66.4Zm47.04-11.687-7.969.869a6.5,6.5,0,0,0-1.171-2.27A5.983,5.983,0,0,0,234.45,51.6a8.094,8.094,0,0,0-3.429-.652,8.319,8.319,0,0,0-4.576,1.183,3.475,3.475,0,0,0-1.823,3.067,3.2,3.2,0,0,0,1.2,2.632,9.993,9.993,0,0,0,4.045,1.666l6.327,1.352q5.264,1.135,7.836,3.6a8.6,8.6,0,0,1,2.6,6.447,10.075,10.075,0,0,1-2.04,6.17,13.211,13.211,0,0,1-5.59,4.165,21.1,21.1,0,0,1-8.21,1.5q-6.81,0-10.963-2.862a11.414,11.414,0,0,1-4.95-7.981l8.524-.821a6.006,6.006,0,0,0,2.463,3.791,8.559,8.559,0,0,0,4.9,1.28,8.808,8.808,0,0,0,5.011-1.28,3.742,3.742,0,0,0,1.9-3.163,3.308,3.308,0,0,0-1.219-2.632,8.692,8.692,0,0,0-3.779-1.594l-6.327-1.328q-5.337-1.111-7.9-3.755a9.158,9.158,0,0,1-2.536-6.7,9.515,9.515,0,0,1,1.871-5.952,12.207,12.207,0,0,1,5.288-3.912,20.567,20.567,0,0,1,7.836-1.388q6.52,0,10.275,2.777A11.7,11.7,0,0,1,245.824,54.713ZM253.841,82V44.909h8.741V82Zm4.395-42.355a5.075,5.075,0,0,1-3.574-1.388,4.511,4.511,0,0,1,0-6.713,5.309,5.309,0,0,1,7.16,0,4.536,4.536,0,0,1,0,6.713A5.062,5.062,0,0,1,258.236,39.645Zm22.071,20.622V82h-8.741V44.909h8.355v6.3h.435a10.578,10.578,0,0,1,4.093-4.95,12.489,12.489,0,0,1,6.967-1.835,13.23,13.23,0,0,1,6.7,1.642,11.156,11.156,0,0,1,4.443,4.757,16.342,16.342,0,0,1,1.558,7.558V82h-8.741V59.736a8.306,8.306,0,0,0-1.92-5.82,6.82,6.82,0,0,0-5.3-2.1,8.132,8.132,0,0,0-4.069,1,7.011,7.011,0,0,0-2.777,2.886A9.605,9.605,0,0,0,280.307,60.267Zm49.141,22.457a18.955,18.955,0,0,1-9.623-2.33,15.586,15.586,0,0,1-6.218-6.616,22.084,22.084,0,0,1-2.173-10.106,22.057,22.057,0,0,1,2.185-10.058,16.453,16.453,0,0,1,6.121-6.761,17.266,17.266,0,0,1,9.249-2.427,19.011,19.011,0,0,1,6.484,1.1,14.894,14.894,0,0,1,5.409,3.393,15.949,15.949,0,0,1,3.707,5.832,23.565,23.565,0,0,1,1.352,8.415v2.68h-30.4V59.953h22.023a9.475,9.475,0,0,0-1.087-4.479,7.949,7.949,0,0,0-2.958-3.1,8.413,8.413,0,0,0-4.407-1.135,8.575,8.575,0,0,0-4.709,1.292,9.008,9.008,0,0,0-3.151,3.381,9.715,9.715,0,0,0-1.147,4.576v5.143a12.012,12.012,0,0,0,1.183,5.542,8.348,8.348,0,0,0,3.308,3.526,9.821,9.821,0,0,0,4.974,1.219,10.361,10.361,0,0,0,3.453-.543,7.518,7.518,0,0,0,2.68-1.606,6.738,6.738,0,0,0,1.714-2.632l8.162.918a12.7,12.7,0,0,1-2.934,5.638,14.293,14.293,0,0,1-5.518,3.719A20.921,20.921,0,0,1,329.447,82.724Zm53.2-28.011-7.969.869a6.5,6.5,0,0,0-1.171-2.27,5.983,5.983,0,0,0-2.234-1.714,8.094,8.094,0,0,0-3.429-.652,8.32,8.32,0,0,0-4.576,1.183,3.475,3.475,0,0,0-1.823,3.067,3.2,3.2,0,0,0,1.2,2.632,9.993,9.993,0,0,0,4.045,1.666l6.327,1.352q5.264,1.135,7.836,3.6a8.6,8.6,0,0,1,2.6,6.447,10.074,10.074,0,0,1-2.04,6.17,13.211,13.211,0,0,1-5.59,4.165,21.1,21.1,0,0,1-8.21,1.5q-6.81,0-10.963-2.862a11.414,11.414,0,0,1-4.95-7.981l8.524-.821a6.006,6.006,0,0,0,2.463,3.791,8.559,8.559,0,0,0,4.9,1.28,8.808,8.808,0,0,0,5.011-1.28,3.742,3.742,0,0,0,1.9-3.163,3.308,3.308,0,0,0-1.219-2.632,8.691,8.691,0,0,0-3.779-1.594l-6.327-1.328q-5.337-1.111-7.9-3.755a9.158,9.158,0,0,1-2.536-6.7,9.515,9.515,0,0,1,1.871-5.952,12.207,12.207,0,0,1,5.288-3.912,20.567,20.567,0,0,1,7.836-1.388q6.52,0,10.275,2.777A11.7,11.7,0,0,1,382.645,54.713Zm37.332,0-7.969.869a6.5,6.5,0,0,0-1.171-2.27A5.983,5.983,0,0,0,408.6,51.6a8.094,8.094,0,0,0-3.429-.652,8.32,8.32,0,0,0-4.576,1.183,3.475,3.475,0,0,0-1.823,3.067,3.2,3.2,0,0,0,1.2,2.632,9.993,9.993,0,0,0,4.045,1.666l6.327,1.352q5.264,1.135,7.836,3.6a8.6,8.6,0,0,1,2.6,6.447,10.074,10.074,0,0,1-2.04,6.17,13.211,13.211,0,0,1-5.59,4.165,21.1,21.1,0,0,1-8.21,1.5q-6.81,0-10.963-2.862a11.414,11.414,0,0,1-4.95-7.981l8.524-.821a6.006,6.006,0,0,0,2.463,3.791,8.559,8.559,0,0,0,4.9,1.28,8.808,8.808,0,0,0,5.011-1.28,3.742,3.742,0,0,0,1.9-3.163,3.308,3.308,0,0,0-1.219-2.632,8.691,8.691,0,0,0-3.779-1.594l-6.327-1.328q-5.337-1.111-7.9-3.755a9.158,9.158,0,0,1-2.536-6.7,9.515,9.515,0,0,1,1.871-5.952,12.207,12.207,0,0,1,5.288-3.912,20.567,20.567,0,0,1,7.836-1.388q6.52,0,10.275,2.777A11.7,11.7,0,0,1,419.977,54.713Zm35.57,28.036a15.264,15.264,0,0,1-6.339-1.268,10.193,10.193,0,0,1-4.443-3.755,10.955,10.955,0,0,1-1.63-6.134,10.456,10.456,0,0,1,1.159-5.192,8.97,8.97,0,0,1,3.163-3.284,16.19,16.19,0,0,1,4.528-1.871,37.494,37.494,0,0,1,5.228-.93q3.26-.338,5.288-.616a7.669,7.669,0,0,0,2.958-.869,2.032,2.032,0,0,0,.93-1.847v-.145a5.471,5.471,0,0,0-1.618-4.226,6.619,6.619,0,0,0-4.66-1.5,8.3,8.3,0,0,0-5.083,1.4,6.927,6.927,0,0,0-2.523,3.308l-8.162-1.159A13.123,13.123,0,0,1,447.53,49a14.05,14.05,0,0,1,5.433-3.429,20.983,20.983,0,0,1,7.1-1.147,23.127,23.127,0,0,1,5.337.628,15.168,15.168,0,0,1,4.854,2.065,10.629,10.629,0,0,1,3.538,3.9,12.767,12.767,0,0,1,1.34,6.158V82h-8.4V76.9h-.29a10.554,10.554,0,0,1-5.832,5.035A14.408,14.408,0,0,1,455.547,82.749Zm2.27-6.423a9.415,9.415,0,0,0,4.564-1.05,7.681,7.681,0,0,0,2.982-2.789,7.2,7.2,0,0,0,1.05-3.791V64.324a4.1,4.1,0,0,1-1.388.628,20.53,20.53,0,0,1-2.185.507q-1.207.217-2.391.386t-2.053.29a15.264,15.264,0,0,0-3.5.869,5.868,5.868,0,0,0-2.439,1.678,4.682,4.682,0,0,0,.869,6.411A7.665,7.665,0,0,0,457.817,76.325Zm34.869-16.058V82h-8.741V44.909H492.3v6.3h.435a10.578,10.578,0,0,1,4.093-4.95,12.489,12.489,0,0,1,6.967-1.835,13.23,13.23,0,0,1,6.7,1.642,11.156,11.156,0,0,1,4.443,4.757,16.343,16.343,0,0,1,1.557,7.558V82h-8.741V59.736a8.306,8.306,0,0,0-1.92-5.82,6.82,6.82,0,0,0-5.3-2.1,8.132,8.132,0,0,0-4.069,1,7.011,7.011,0,0,0-2.777,2.886A9.605,9.605,0,0,0,492.686,60.267ZM539.17,82.652a14.034,14.034,0,0,1-7.824-2.246,15.262,15.262,0,0,1-5.457-6.52,24.329,24.329,0,0,1-2-10.384,24.064,24.064,0,0,1,2.041-10.444,15.03,15.03,0,0,1,5.518-6.447,14.269,14.269,0,0,1,7.751-2.185,11.524,11.524,0,0,1,5.361,1.1,10.333,10.333,0,0,1,3.332,2.632,16.438,16.438,0,0,1,1.908,2.886h.362v-18.5h8.766V82h-8.6V76.156H549.8a14.642,14.642,0,0,1-1.956,2.862,10.666,10.666,0,0,1-3.381,2.572A11.671,11.671,0,0,1,539.17,82.652Zm2.439-7.172a7.516,7.516,0,0,0,4.733-1.509,9.278,9.278,0,0,0,2.97-4.214,17.909,17.909,0,0,0,1.014-6.3,17.7,17.7,0,0,0-1-6.254,9.016,9.016,0,0,0-2.946-4.129,8.519,8.519,0,0,0-9.647.048,9.21,9.21,0,0,0-2.946,4.2,17.634,17.634,0,0,0-.99,6.134,17.822,17.822,0,0,0,1,6.194,9.48,9.48,0,0,0,2.97,4.274A7.559,7.559,0,0,0,541.609,75.48Zm51.507-5.119-.024-10.553h1.4l13.33-14.9h10.214l-16.4,18.256H599.83ZM585.148,82V32.545h8.742V82Zm23.278,0L596.352,65.121l5.892-6.158L618.882,82Zm30.281.724a18.955,18.955,0,0,1-9.623-2.33,15.586,15.586,0,0,1-6.218-6.616,22.083,22.083,0,0,1-2.173-10.106,22.057,22.057,0,0,1,2.185-10.058A16.453,16.453,0,0,1,629,46.853a17.266,17.266,0,0,1,9.249-2.427,19.01,19.01,0,0,1,6.484,1.1,14.9,14.9,0,0,1,5.409,3.393,15.949,15.949,0,0,1,3.707,5.832,23.564,23.564,0,0,1,1.352,8.415v2.68H624.8V59.953h22.023a9.476,9.476,0,0,0-1.087-4.479,7.949,7.949,0,0,0-2.958-3.1,8.413,8.413,0,0,0-4.407-1.135,8.575,8.575,0,0,0-4.709,1.292,9.008,9.008,0,0,0-3.151,3.381,9.714,9.714,0,0,0-1.147,4.576v5.143a12.012,12.012,0,0,0,1.183,5.542,8.348,8.348,0,0,0,3.308,3.526,9.821,9.821,0,0,0,4.974,1.219,10.361,10.361,0,0,0,3.453-.543,7.518,7.518,0,0,0,2.68-1.606,6.738,6.738,0,0,0,1.714-2.632l8.162.918A12.7,12.7,0,0,1,651.9,77.69a14.292,14.292,0,0,1-5.518,3.719A20.92,20.92,0,0,1,638.707,82.724Zm40.3,0a18.955,18.955,0,0,1-9.623-2.33,15.586,15.586,0,0,1-6.218-6.616A22.083,22.083,0,0,1,661,63.672a22.057,22.057,0,0,1,2.185-10.058,16.453,16.453,0,0,1,6.121-6.761,17.266,17.266,0,0,1,9.249-2.427,19.01,19.01,0,0,1,6.484,1.1,14.9,14.9,0,0,1,5.409,3.393,15.949,15.949,0,0,1,3.707,5.832,23.564,23.564,0,0,1,1.352,8.415v2.68H665.1V59.953h22.023a9.476,9.476,0,0,0-1.087-4.479,7.949,7.949,0,0,0-2.958-3.1,8.413,8.413,0,0,0-4.407-1.135,8.575,8.575,0,0,0-4.709,1.292,9.008,9.008,0,0,0-3.151,3.381,9.714,9.714,0,0,0-1.147,4.576v5.143a12.012,12.012,0,0,0,1.183,5.542,8.348,8.348,0,0,0,3.308,3.526,9.821,9.821,0,0,0,4.974,1.219,10.361,10.361,0,0,0,3.453-.543,7.518,7.518,0,0,0,2.68-1.606,6.738,6.738,0,0,0,1.714-2.632l8.162.918a12.7,12.7,0,0,1-2.934,5.638,14.292,14.292,0,0,1-5.518,3.719A20.92,20.92,0,0,1,679.01,82.724Zm23.882,13.185v-51h8.6v6.134H712a16.435,16.435,0,0,1,1.908-2.886,10.332,10.332,0,0,1,3.332-2.632,11.524,11.524,0,0,1,5.361-1.1,14.251,14.251,0,0,1,7.763,2.185,15.061,15.061,0,0,1,5.506,6.447,24.065,24.065,0,0,1,2.04,10.444,24.329,24.329,0,0,1-2,10.384,15.262,15.262,0,0,1-5.457,6.52,14.034,14.034,0,0,1-7.824,2.246,11.671,11.671,0,0,1-5.288-1.062,10.521,10.521,0,0,1-3.369-2.572A15.91,15.91,0,0,1,712,76.156h-.362V95.909Zm8.572-32.455a17.718,17.718,0,0,0,1.026,6.3,9.4,9.4,0,0,0,2.97,4.214,7.466,7.466,0,0,0,4.721,1.509,7.547,7.547,0,0,0,4.854-1.558,9.522,9.522,0,0,0,2.958-4.274,17.822,17.822,0,0,0,1-6.194,17.634,17.634,0,0,0-.99-6.134,9.21,9.21,0,0,0-2.946-4.2,8.5,8.5,0,0,0-9.635-.048,8.978,8.978,0,0,0-2.958,4.129A17.7,17.7,0,0,0,711.464,63.455ZM762.247,82V44.909h8.742V82Zm4.395-42.355a5.075,5.075,0,0,1-3.574-1.388,4.511,4.511,0,0,1,0-6.713,5.309,5.309,0,0,1,7.16,0,4.536,4.536,0,0,1,0,6.713A5.062,5.062,0,0,1,766.642,39.645Zm31.851,5.264V51.67H777.17V44.909Zm-16.058-8.886h8.742V70.844a5.41,5.41,0,0,0,.543,2.692,2.8,2.8,0,0,0,1.437,1.268,5.556,5.556,0,0,0,1.98.338,8.755,8.755,0,0,0,1.509-.121q.688-.121,1.05-.217l1.473,6.834a19.706,19.706,0,0,1-1.992.531,16.623,16.623,0,0,1-3.151.338,14.126,14.126,0,0,1-5.916-1,9.056,9.056,0,0,1-4.165-3.417,10.156,10.156,0,0,1-1.509-5.8ZM24.51,114.545V164H15.551V123.263h-.29L3.695,130.652v-8.21l12.291-7.9Zm30.861,50.4a17.186,17.186,0,0,1-10.227-3.031,19.034,19.034,0,0,1-6.544-8.766,37.406,37.406,0,0,1-2.282-13.825,37.325,37.325,0,0,1,2.306-13.776,18.821,18.821,0,0,1,6.544-8.681,17.293,17.293,0,0,1,10.2-2.994,17.348,17.348,0,0,1,10.214,2.994,18.783,18.783,0,0,1,6.556,8.693,37.042,37.042,0,0,1,2.282,13.764,37.481,37.481,0,0,1-2.282,13.849,18.956,18.956,0,0,1-6.544,8.754A17.235,17.235,0,0,1,55.371,164.942Zm0-7.558q4.636,0,7.329-4.576t2.692-13.487a34.146,34.146,0,0,0-1.232-9.9,13.225,13.225,0,0,0-3.477-6.049,7.638,7.638,0,0,0-5.312-2.04q-4.612,0-7.293,4.576t-2.7,13.414a34.331,34.331,0,0,0,1.2,9.949,13.151,13.151,0,0,0,3.465,6.073A7.669,7.669,0,0,0,55.371,157.384Zm45.349,7.558a17.186,17.186,0,0,1-10.227-3.031,19.034,19.034,0,0,1-6.544-8.766,37.406,37.406,0,0,1-2.282-13.825,37.325,37.325,0,0,1,2.306-13.776,18.821,18.821,0,0,1,6.544-8.681,18.9,18.9,0,0,1,20.417,0,18.783,18.783,0,0,1,6.556,8.693,37.042,37.042,0,0,1,2.282,13.764,37.481,37.481,0,0,1-2.282,13.849,18.956,18.956,0,0,1-6.544,8.754A17.235,17.235,0,0,1,100.72,164.942Zm0-7.558q4.636,0,7.329-4.576t2.692-13.487a34.146,34.146,0,0,0-1.232-9.9,13.225,13.225,0,0,0-3.477-6.049,7.638,7.638,0,0,0-5.312-2.04q-4.612,0-7.293,4.576t-2.7,13.414a34.332,34.332,0,0,0,1.2,9.949,13.151,13.151,0,0,0,3.465,6.073A7.669,7.669,0,0,0,100.72,157.384Zm53.511-2.656v-2.608a11.563,11.563,0,0,1,1.219-5.288,9.677,9.677,0,0,1,3.562-3.888,10.448,10.448,0,0,1,5.675-1.473,10.581,10.581,0,0,1,5.747,1.461,9.476,9.476,0,0,1,3.513,3.876,11.809,11.809,0,0,1,1.2,5.313v2.608a11.658,11.658,0,0,1-1.207,5.288A9.617,9.617,0,0,1,170.4,163.9a11.831,11.831,0,0,1-11.434,0,9.506,9.506,0,0,1-3.538-3.888A11.755,11.755,0,0,1,154.232,154.727Zm6.3-2.608v2.608a6.893,6.893,0,0,0,.918,3.5,3.416,3.416,0,0,0,3.236,1.594,3.363,3.363,0,0,0,3.224-1.582,7.094,7.094,0,0,0,.881-3.514v-2.608a7.478,7.478,0,0,0-.845-3.538,3.337,3.337,0,0,0-3.26-1.606,3.417,3.417,0,0,0-3.212,1.606A6.865,6.865,0,0,0,160.534,152.119Zm-31.44-25.693v-2.608a11.522,11.522,0,0,1,1.232-5.312,9.68,9.68,0,0,1,3.574-3.876,11.869,11.869,0,0,1,11.41,0,9.367,9.367,0,0,1,3.513,3.876,11.909,11.909,0,0,1,1.183,5.313v2.608a11.733,11.733,0,0,1-1.2,5.3,9.364,9.364,0,0,1-3.538,3.852,12,12,0,0,1-11.434,0,9.453,9.453,0,0,1-3.538-3.864A11.658,11.658,0,0,1,129.094,126.426Zm6.351-2.608v2.608a6.945,6.945,0,0,0,.906,3.514,3.4,3.4,0,0,0,3.224,1.582,3.339,3.339,0,0,0,3.2-1.582,7.1,7.1,0,0,0,.881-3.514v-2.608a7.478,7.478,0,0,0-.845-3.538,3.313,3.313,0,0,0-3.236-1.606,3.378,3.378,0,0,0-3.212,1.618A7.025,7.025,0,0,0,135.445,123.818ZM131.847,164l34-49.455h6.037l-34,49.455Zm86.473.724a17.856,17.856,0,0,1-9.526-2.439,16.163,16.163,0,0,1-6.109-6.749,24.1,24.1,0,0,1,.036-19.922,16.291,16.291,0,0,1,6.146-6.761,17.688,17.688,0,0,1,9.406-2.427,18.478,18.478,0,0,1,8,1.654,13.539,13.539,0,0,1,7.933,11.675h-8.355a8.08,8.08,0,0,0-2.4-4.479,7.046,7.046,0,0,0-5.059-1.8,7.938,7.938,0,0,0-4.709,1.437,9.282,9.282,0,0,0-3.151,4.117,16.584,16.584,0,0,0-1.123,6.423,17.169,17.169,0,0,0,1.111,6.508,9.383,9.383,0,0,0,3.127,4.178,8.471,8.471,0,0,0,8.21.724,6.862,6.862,0,0,0,2.572-2.137,8.253,8.253,0,0,0,1.425-3.4h8.355a14.493,14.493,0,0,1-2.318,6.967,13.6,13.6,0,0,1-5.457,4.733A18.149,18.149,0,0,1,218.32,164.724Zm39.264,0a17.959,17.959,0,0,1-9.418-2.391,16.154,16.154,0,0,1-6.17-6.689,24.236,24.236,0,0,1,0-20.115,16.121,16.121,0,0,1,6.17-6.713,19.745,19.745,0,0,1,18.835,0,16.121,16.121,0,0,1,6.17,6.713,24.236,24.236,0,0,1,0,20.115,16.154,16.154,0,0,1-6.17,6.689A17.959,17.959,0,0,1,257.584,164.724Zm.048-7a7.494,7.494,0,0,0,4.926-1.63,9.754,9.754,0,0,0,2.958-4.383,19.836,19.836,0,0,0,0-12.3A9.833,9.833,0,0,0,262.558,135a7.459,7.459,0,0,0-4.926-1.642A7.616,7.616,0,0,0,252.621,135a9.789,9.789,0,0,0-2.97,4.407,19.836,19.836,0,0,0,0,12.3,9.711,9.711,0,0,0,2.97,4.383A7.653,7.653,0,0,0,257.632,157.722ZM282.746,164V126.909H291.1v6.3h.435a9.9,9.9,0,0,1,3.839-4.986,11.212,11.212,0,0,1,6.4-1.8,10.793,10.793,0,0,1,6.363,1.823,9.681,9.681,0,0,1,3.658,4.962h.386a10.184,10.184,0,0,1,4.165-4.938,12.8,12.8,0,0,1,6.967-1.847,11.307,11.307,0,0,1,8.355,3.236Q334.9,132.9,334.9,139.1V164h-8.766V140.456q0-3.453-1.835-5.059a6.581,6.581,0,0,0-4.491-1.606,6.31,6.31,0,0,0-4.938,1.968,7.335,7.335,0,0,0-1.775,5.107V164h-8.572V140.094a6.176,6.176,0,0,0-1.727-4.588,6.115,6.115,0,0,0-4.5-1.714,6.4,6.4,0,0,0-3.429.954,6.846,6.846,0,0,0-2.463,2.68,8.443,8.443,0,0,0-.918,4.021V164Zm61.045,13.909v-51h8.6v6.134h.507a16.436,16.436,0,0,1,1.908-2.886,10.333,10.333,0,0,1,3.332-2.632,11.523,11.523,0,0,1,5.361-1.1,14.252,14.252,0,0,1,7.764,2.185,15.061,15.061,0,0,1,5.506,6.447,24.064,24.064,0,0,1,2.04,10.444,24.33,24.33,0,0,1-2,10.384,15.262,15.262,0,0,1-5.457,6.52,14.034,14.034,0,0,1-7.824,2.246,11.671,11.671,0,0,1-5.288-1.062,10.521,10.521,0,0,1-3.369-2.572,15.906,15.906,0,0,1-1.968-2.862h-.362v19.753Zm8.572-32.455a17.718,17.718,0,0,0,1.026,6.3,9.4,9.4,0,0,0,2.97,4.214,7.466,7.466,0,0,0,4.721,1.509,7.546,7.546,0,0,0,4.854-1.558,9.522,9.522,0,0,0,2.958-4.274,17.822,17.822,0,0,0,1-6.194,17.633,17.633,0,0,0-.99-6.134,9.21,9.21,0,0,0-2.946-4.2,8.5,8.5,0,0,0-9.635-.048,8.979,8.979,0,0,0-2.958,4.129A17.7,17.7,0,0,0,352.364,145.455Zm42.645-30.909V164h-8.741V114.545ZM403.991,164V126.909h8.741V164Zm4.395-42.355a5.075,5.075,0,0,1-3.574-1.388,4.511,4.511,0,0,1,0-6.713,5.309,5.309,0,0,1,7.16,0,4.536,4.536,0,0,1,0,6.713A5.062,5.062,0,0,1,408.386,121.645Zm24,43.1a15.264,15.264,0,0,1-6.339-1.268,10.193,10.193,0,0,1-4.443-3.755,10.955,10.955,0,0,1-1.63-6.134,10.456,10.456,0,0,1,1.159-5.192,8.97,8.97,0,0,1,3.163-3.284,16.191,16.191,0,0,1,4.528-1.871,37.5,37.5,0,0,1,5.228-.93q3.26-.338,5.288-.616a7.669,7.669,0,0,0,2.958-.869,2.032,2.032,0,0,0,.93-1.847v-.145a5.471,5.471,0,0,0-1.618-4.226,6.619,6.619,0,0,0-4.66-1.5,8.3,8.3,0,0,0-5.083,1.4,6.927,6.927,0,0,0-2.523,3.308l-8.162-1.159A13.123,13.123,0,0,1,424.372,131a14.05,14.05,0,0,1,5.433-3.429,20.983,20.983,0,0,1,7.1-1.147,23.127,23.127,0,0,1,5.337.628,15.169,15.169,0,0,1,4.854,2.065,10.628,10.628,0,0,1,3.538,3.9,12.767,12.767,0,0,1,1.34,6.158V164h-8.4v-5.1h-.29a10.554,10.554,0,0,1-5.832,5.035A14.408,14.408,0,0,1,432.389,164.749Zm2.27-6.423a9.415,9.415,0,0,0,4.564-1.05,7.681,7.681,0,0,0,2.982-2.789,7.2,7.2,0,0,0,1.05-3.791v-4.371a4.105,4.105,0,0,1-1.388.628,20.526,20.526,0,0,1-2.185.507q-1.207.217-2.391.386t-2.053.29a15.264,15.264,0,0,0-3.5.869,5.868,5.868,0,0,0-2.439,1.678,4.682,4.682,0,0,0,.869,6.411A7.665,7.665,0,0,0,434.659,158.325Zm34.869-16.058V164h-8.741V126.909h8.355v6.3h.435a10.578,10.578,0,0,1,4.093-4.95,12.489,12.489,0,0,1,6.967-1.835,13.23,13.23,0,0,1,6.7,1.642,11.156,11.156,0,0,1,4.443,4.757,16.342,16.342,0,0,1,1.558,7.558V164H484.6V141.736a8.306,8.306,0,0,0-1.92-5.82,6.82,6.82,0,0,0-5.3-2.1,8.132,8.132,0,0,0-4.069,1,7.011,7.011,0,0,0-2.777,2.886A9.605,9.605,0,0,0,469.528,142.267Zm51.241-15.358v6.761H499.447v-6.761Zm-16.058-8.886h8.741v34.821a5.409,5.409,0,0,0,.543,2.692,2.8,2.8,0,0,0,1.437,1.268,5.556,5.556,0,0,0,1.98.338,8.756,8.756,0,0,0,1.509-.121q.688-.121,1.05-.217l1.473,6.834a19.71,19.71,0,0,1-1.992.531,16.625,16.625,0,0,1-3.151.338,14.126,14.126,0,0,1-5.916-1,9.056,9.056,0,0,1-4.165-3.417,10.156,10.156,0,0,1-1.509-5.8Z" transform="translate(59 289)" fill="#fff"/>
      <path id="Path_2" data-name="Path 2" d="M36.053-49.455h8.959v32.31a17.373,17.373,0,0,1-2.5,9.345A16.97,16.97,0,0,1,35.5-1.509,23.316,23.316,0,0,1,24.945.749,23.373,23.373,0,0,1,14.368-1.509a16.887,16.887,0,0,1-7-6.29,17.437,17.437,0,0,1-2.487-9.345v-32.31h8.959v31.561A11,11,0,0,0,15.2-12.388a9.668,9.668,0,0,0,3.852,3.779,12.07,12.07,0,0,0,5.892,1.364,12.141,12.141,0,0,0,5.9-1.364A9.567,9.567,0,0,0,34.7-12.388a11.074,11.074,0,0,0,1.352-5.506Zm45.591,13.6a6.6,6.6,0,0,0-2.837-4.926,11,11,0,0,0-6.484-1.763,12.336,12.336,0,0,0-4.805.845,7.114,7.114,0,0,0-3.067,2.294A5.578,5.578,0,0,0,63.364-36.1a4.937,4.937,0,0,0,.712,2.68A6.153,6.153,0,0,0,66.02-31.5a13.385,13.385,0,0,0,2.729,1.316,29.349,29.349,0,0,0,3.018.893L76.4-28.132a32.306,32.306,0,0,1,5.4,1.763,19.282,19.282,0,0,1,4.661,2.8,12.5,12.5,0,0,1,3.272,4.081,12.277,12.277,0,0,1,1.207,5.6,13.349,13.349,0,0,1-2.222,7.643A14.578,14.578,0,0,1,82.308-1.1,25.028,25.028,0,0,1,72.178.749,25.647,25.647,0,0,1,62.168-1.038a14.837,14.837,0,0,1-6.616-5.216,15.4,15.4,0,0,1-2.572-8.355h8.814a7.492,7.492,0,0,0,1.594,4.3,8.427,8.427,0,0,0,3.658,2.56,14.343,14.343,0,0,0,5.059.845,13.787,13.787,0,0,0,5.131-.881A8.17,8.17,0,0,0,80.7-10.251a5.9,5.9,0,0,0,1.28-3.707,4.774,4.774,0,0,0-1.135-3.2,8.521,8.521,0,0,0-3.1-2.125A31.464,31.464,0,0,0,73.1-20.815l-5.626-1.449a22.472,22.472,0,0,1-9.647-4.769,10.919,10.919,0,0,1-3.538-8.512A12.7,12.7,0,0,1,56.663-43.2a15.636,15.636,0,0,1,6.484-5.107,22.678,22.678,0,0,1,9.3-1.823,21.942,21.942,0,0,1,9.237,1.823,15.178,15.178,0,0,1,6.242,5.047,12.941,12.941,0,0,1,2.342,7.4ZM115.788,0V-49.455h8.741v18.5h.362a16.436,16.436,0,0,1,1.908-2.886,10.333,10.333,0,0,1,3.332-2.632,11.524,11.524,0,0,1,5.361-1.1,14.252,14.252,0,0,1,7.764,2.185,15.061,15.061,0,0,1,5.506,6.447A24.064,24.064,0,0,1,150.8-18.5a24.329,24.329,0,0,1-2,10.384,15.262,15.262,0,0,1-5.457,6.52A14.034,14.034,0,0,1,135.517.652a11.671,11.671,0,0,1-5.288-1.062,10.521,10.521,0,0,1-3.369-2.572,15.908,15.908,0,0,1-1.968-2.862h-.507V0Zm8.572-18.545a17.718,17.718,0,0,0,1.026,6.3,9.4,9.4,0,0,0,2.97,4.214,7.466,7.466,0,0,0,4.721,1.509,7.546,7.546,0,0,0,4.854-1.558,9.522,9.522,0,0,0,2.958-4.274,17.822,17.822,0,0,0,1-6.194,17.633,17.633,0,0,0-.99-6.134,9.21,9.21,0,0,0-2.946-4.2,7.705,7.705,0,0,0-4.878-1.521,7.68,7.68,0,0,0-4.757,1.473,8.979,8.979,0,0,0-2.958,4.129A17.7,17.7,0,0,0,124.361-18.545ZM181.9-15.6V-37.091h8.741V0H182.17V-6.592h-.386a11.178,11.178,0,0,1-4.117,5.1,12.071,12.071,0,0,1-7.039,1.98,12.518,12.518,0,0,1-6.435-1.63A11.128,11.128,0,0,1,159.834-5.9a16.728,16.728,0,0,1-1.57-7.57V-37.091h8.741v22.264a7.9,7.9,0,0,0,1.932,5.6,6.6,6.6,0,0,0,5.071,2.077,8.017,8.017,0,0,0,3.743-.942,7.671,7.671,0,0,0,2.982-2.813A8.7,8.7,0,0,0,181.9-15.6Zm47.04-11.687-7.969.869a6.5,6.5,0,0,0-1.171-2.27,5.983,5.983,0,0,0-2.234-1.714,8.094,8.094,0,0,0-3.429-.652,8.319,8.319,0,0,0-4.576,1.183,3.475,3.475,0,0,0-1.823,3.067,3.2,3.2,0,0,0,1.2,2.632,9.993,9.993,0,0,0,4.045,1.666l6.327,1.352q5.264,1.135,7.836,3.6a8.6,8.6,0,0,1,2.6,6.447,10.075,10.075,0,0,1-2.04,6.17,13.211,13.211,0,0,1-5.59,4.165,21.1,21.1,0,0,1-8.21,1.5q-6.81,0-10.963-2.862a11.414,11.414,0,0,1-4.95-7.981l8.524-.821a6.006,6.006,0,0,0,2.463,3.791,8.559,8.559,0,0,0,4.9,1.28,8.808,8.808,0,0,0,5.011-1.28,3.742,3.742,0,0,0,1.9-3.163,3.308,3.308,0,0,0-1.219-2.632,8.692,8.692,0,0,0-3.779-1.594l-6.327-1.328q-5.337-1.111-7.9-3.755a9.158,9.158,0,0,1-2.536-6.7,9.515,9.515,0,0,1,1.871-5.952,12.207,12.207,0,0,1,5.288-3.912,20.567,20.567,0,0,1,7.836-1.388q6.52,0,10.275,2.777A11.7,11.7,0,0,1,228.945-27.287ZM236.962,0V-37.091H245.7V0Zm4.395-42.355a5.075,5.075,0,0,1-3.574-1.388,4.4,4.4,0,0,1-1.5-3.344,4.425,4.425,0,0,1,1.5-3.369,5.075,5.075,0,0,1,3.574-1.388,5.063,5.063,0,0,1,3.586,1.388,4.441,4.441,0,0,1,1.485,3.369,4.415,4.415,0,0,1-1.485,3.344A5.062,5.062,0,0,1,241.357-42.355Zm22.071,20.622V0h-8.741V-37.091h8.355v6.3h.435a10.578,10.578,0,0,1,4.093-4.95,12.489,12.489,0,0,1,6.967-1.835,13.23,13.23,0,0,1,6.7,1.642,11.156,11.156,0,0,1,4.443,4.757,16.342,16.342,0,0,1,1.558,7.558V0H278.5V-22.264a8.306,8.306,0,0,0-1.92-5.82,6.82,6.82,0,0,0-5.3-2.1,8.132,8.132,0,0,0-4.069,1A7.011,7.011,0,0,0,264.43-26.3,9.605,9.605,0,0,0,263.428-21.733ZM312.568.724a18.955,18.955,0,0,1-9.623-2.33,15.586,15.586,0,0,1-6.218-6.616,22.084,22.084,0,0,1-2.173-10.106,22.057,22.057,0,0,1,2.185-10.058,16.453,16.453,0,0,1,6.121-6.761,17.266,17.266,0,0,1,9.249-2.427,19.011,19.011,0,0,1,6.484,1.1A14.894,14.894,0,0,1,324-33.082a15.949,15.949,0,0,1,3.707,5.832,23.565,23.565,0,0,1,1.352,8.415v2.68h-30.4v-5.892h22.023a9.475,9.475,0,0,0-1.087-4.479,7.949,7.949,0,0,0-2.958-3.1,8.413,8.413,0,0,0-4.407-1.135,8.575,8.575,0,0,0-4.709,1.292,9.008,9.008,0,0,0-3.151,3.381,9.715,9.715,0,0,0-1.147,4.576v5.143a12.012,12.012,0,0,0,1.183,5.542A8.348,8.348,0,0,0,307.714-7.3a9.821,9.821,0,0,0,4.974,1.219,10.361,10.361,0,0,0,3.453-.543,7.518,7.518,0,0,0,2.68-1.606,6.738,6.738,0,0,0,1.714-2.632l8.162.918a12.7,12.7,0,0,1-2.934,5.638,14.293,14.293,0,0,1-5.518,3.719A20.921,20.921,0,0,1,312.568.724Zm53.2-28.011-7.969.869a6.5,6.5,0,0,0-1.171-2.27,5.983,5.983,0,0,0-2.234-1.714,8.094,8.094,0,0,0-3.429-.652,8.32,8.32,0,0,0-4.576,1.183,3.475,3.475,0,0,0-1.823,3.067,3.2,3.2,0,0,0,1.2,2.632,9.993,9.993,0,0,0,4.045,1.666l6.327,1.352q5.264,1.135,7.836,3.6a8.6,8.6,0,0,1,2.6,6.447,10.074,10.074,0,0,1-2.04,6.17,13.211,13.211,0,0,1-5.59,4.165,21.1,21.1,0,0,1-8.21,1.5q-6.81,0-10.963-2.862a11.414,11.414,0,0,1-4.95-7.981l8.524-.821A6.006,6.006,0,0,0,345.8-7.148a8.559,8.559,0,0,0,4.9,1.28,8.808,8.808,0,0,0,5.011-1.28,3.742,3.742,0,0,0,1.9-3.163,3.308,3.308,0,0,0-1.219-2.632,8.691,8.691,0,0,0-3.779-1.594l-6.327-1.328q-5.337-1.111-7.9-3.755a9.158,9.158,0,0,1-2.536-6.7,9.515,9.515,0,0,1,1.871-5.952,12.207,12.207,0,0,1,5.288-3.912,20.567,20.567,0,0,1,7.836-1.388q6.52,0,10.275,2.777A11.7,11.7,0,0,1,365.766-27.287Zm37.332,0-7.969.869a6.5,6.5,0,0,0-1.171-2.27,5.983,5.983,0,0,0-2.234-1.714,8.094,8.094,0,0,0-3.429-.652,8.32,8.32,0,0,0-4.576,1.183A3.475,3.475,0,0,0,381.9-26.8a3.2,3.2,0,0,0,1.2,2.632,9.993,9.993,0,0,0,4.045,1.666l6.327,1.352q5.264,1.135,7.836,3.6a8.6,8.6,0,0,1,2.6,6.447,10.074,10.074,0,0,1-2.04,6.17,13.211,13.211,0,0,1-5.59,4.165,21.1,21.1,0,0,1-8.21,1.5q-6.81,0-10.963-2.862a11.414,11.414,0,0,1-4.95-7.981l8.524-.821a6.006,6.006,0,0,0,2.463,3.791,8.559,8.559,0,0,0,4.9,1.28,8.808,8.808,0,0,0,5.011-1.28,3.742,3.742,0,0,0,1.9-3.163,3.308,3.308,0,0,0-1.219-2.632,8.691,8.691,0,0,0-3.779-1.594l-6.327-1.328q-5.337-1.111-7.9-3.755a9.158,9.158,0,0,1-2.536-6.7,9.515,9.515,0,0,1,1.871-5.952,12.207,12.207,0,0,1,5.288-3.912,20.567,20.567,0,0,1,7.836-1.388q6.52,0,10.275,2.777A11.7,11.7,0,0,1,403.1-27.287Z" transform="translate(68.614 374.548)" fill="url(#linear-gradient-2)"/>
    </g>
    <g id="Group_3" data-name="Group 3" transform="translate(119 396)">
      <circle id="Ellipse_1" data-name="Ellipse 1" cx="167.5" cy="167.5" r="167.5" transform="translate(831 29)" fill="#fff"/>
      <circle id="Ellipse_2" data-name="Ellipse 2" cx="120" cy="120" r="120" transform="translate(879 77)" fill="#8000ff"/>
    </g>
    <g id="Group_5" data-name="Group 5" transform="translate(93 -196)">
      <circle id="Ellipse_1-2" data-name="Ellipse 1" cx="167.5" cy="167.5" r="167.5" transform="translate(831 29)" fill="#fff"/>
      <circle id="Ellipse_2-2" data-name="Ellipse 2" cx="120" cy="120" r="120" transform="translate(879 77)" fill="#8000ff"/>
    </g>
    <g id="Group_6" data-name="Group 6" transform="translate(-214 -169)">
      <circle id="Ellipse_1-3" data-name="Ellipse 1" cx="124.5" cy="124.5" r="124.5" transform="translate(831 29)" fill="#fff"/>
      <circle id="Ellipse_2-3" data-name="Ellipse 2" cx="89" cy="89" r="89" transform="translate(867 65)" fill="url(#linear-gradient-2)"/>
    </g>
    <g id="Trustpilot-logo" transform="translate(60 411.027)">
      <rect id="Rectangle_8" data-name="Rectangle 8" width="36.522" height="36.522" transform="translate(0 68.477)" fill="#00f0a1"/>
      <rect id="Rectangle_9" data-name="Rectangle 9" width="36.522" height="36.522" transform="translate(39.565 68.477)" fill="#00f0a1"/>
      <rect id="Rectangle_10" data-name="Rectangle 10" width="36.522" height="36.522" transform="translate(79.13 68.477)" fill="#00f0a1"/>
      <rect id="Rectangle_11" data-name="Rectangle 11" width="36.522" height="36.522" transform="translate(118.695 68.477)" fill="#00f0a1"/>
      <rect id="Rectangle_12" data-name="Rectangle 12" width="36.522" height="36.522" transform="translate(158.261 68.477)" fill="#00f0a1"/>
      <g id="Group_7" data-name="Group 7" transform="translate(5.478 74.64)">
        <path id="Path_3" data-name="Path 3" d="M35.058,275.261l5.554-1.408,2.321,7.152Zm12.783-9.245H38.063l-3.005-9.206-3.005,9.206H22.275l7.913,5.707-3.006,9.206,7.913-5.706,4.87-3.5,7.875-5.707Z" transform="translate(-22.275 -256.81)" fill="#fff"/>
      </g>
      <g id="Group_8" data-name="Group 8" transform="translate(45.043 74.64)">
        <path id="Path_4" data-name="Path 4" d="M195.933,275.261l5.554-1.408,2.321,7.152Zm12.783-9.245h-9.777l-3.005-9.206-3.005,9.206H183.15l7.913,5.707-3.006,9.206,7.913-5.706,4.87-3.5,7.875-5.707Z" transform="translate(-183.15 -256.81)" fill="#fff"/>
      </g>
      <g id="Group_9" data-name="Group 9" transform="translate(84.609 74.64)">
        <path id="Path_5" data-name="Path 5" d="M356.808,275.261l5.554-1.408,2.321,7.152Zm12.783-9.245h-9.777l-3.006-9.206-3.005,9.206h-9.777l7.913,5.707-3.006,9.206,7.913-5.706,4.87-3.5,7.875-5.707Z" transform="translate(-344.025 -256.81)" fill="#fff"/>
      </g>
      <g id="Group_10" data-name="Group 10" transform="translate(124.174 74.64)">
        <path id="Path_6" data-name="Path 6" d="M517.683,275.261l5.554-1.408,2.321,7.152Zm12.783-9.245h-9.777l-3.006-9.206-3.006,9.206H504.9l7.913,5.707-3.006,9.206,7.913-5.706,4.87-3.5,7.875-5.707Z" transform="translate(-504.9 -256.81)" fill="#fff"/>
      </g>
      <g id="Group_11" data-name="Group 11" transform="translate(163.739 74.64)">
        <path id="Path_7-2" data-name="Path 7" d="M678.558,275.261l5.554-1.408,2.321,7.152Zm12.783-9.245h-9.777l-3.006-9.206-3.006,9.206h-9.777l7.913,5.707-3.006,9.206,7.913-5.706,4.87-3.5,7.875-5.707Z" transform="translate(-665.775 -256.81)" fill="#fff"/>
      </g>
    </g>
    <g id="Ellipse_3" data-name="Ellipse 3" transform="translate(1047 -15)" fill="none" stroke="#fff" stroke-width="2">
      <circle cx="45.5" cy="45.5" r="45.5" stroke="none"/>
      <circle cx="45.5" cy="45.5" r="44.5" fill="none"/>
    </g>
    <g id="Ellipse_4" data-name="Ellipse 4" transform="translate(1121 224)" fill="none" stroke="#fff" stroke-width="2">
      <circle cx="45.5" cy="45.5" r="45.5" stroke="none"/>
      <circle cx="45.5" cy="45.5" r="44.5" fill="none"/>
    </g>
  </g>
</svg>
