<svg xmlns="http://www.w3.org/2000/svg" xmlns:xlink="http://www.w3.org/1999/xlink" viewBox="0,0,256,256" width="48px" height="48px"><g fill="#0000ff" fill-rule="nonzero" stroke="none" stroke-width="1" stroke-linecap="butt" stroke-linejoin="miter" stroke-miterlimit="10" stroke-dasharray="" stroke-dashoffset="0" font-family="none" font-weight="none" font-size="none" text-anchor="none" style="mix-blend-mode: normal"><g transform="scale(5.33333,5.33333)"><path d="M13,4c-2.74952,0 -5,2.25048 -5,5v31c0,2.74952 2.25048,5 5,5h22c2.74952,0 5,-2.25048 5,-5v-20c0.0051,-0.36064 -0.18438,-0.69608 -0.49587,-0.87789c-0.3115,-0.18181 -0.69676,-0.18181 -1.00825,0c-0.3115,0.18181 -0.50097,0.51725 -0.49587,0.87789v20c0,1.66848 -1.33152,3 -3,3h-22c-1.66848,0 -3,-1.33152 -3,-3v-31c0,-1.66848 1.33152,-3 3,-3h13.75781c0.09101,0 0.15313,0.0875 0.24219,0.09961v6.90039c0,2.19733 1.80267,4 4,4h8c0.40437,-0.00016 0.76885,-0.24381 0.92359,-0.6174c0.15474,-0.37359 0.06927,-0.8036 -0.21656,-1.08963l-10.12109,-10.12109c-0.74954,-0.75087 -1.76747,-1.17187 -2.82813,-1.17187zM29,7.41406l7.58594,7.58594h-5.58594c-1.11667,0 -2,-0.88333 -2,-2z"></path></g></g></svg>